<?xml version="1.0" encoding="UTF-8" ?>
<svg version="1.1" width="26" height="20" xmlns="http://www.w3.org/2000/svg" shape-rendering="crispEdges">
<rect x="0" y="0" width="2" height="2" fill="#FFFFFF" />
<rect x="2" y="0" width="2" height="2" fill="#FFFFFF" />
<rect x="4" y="0" width="2" height="2" fill="#FFFFFF" />
<rect x="6" y="0" width="2" height="2" fill="#FFFFFF" />
<rect x="8" y="0" width="2" height="2" fill="#FFFFFF" />
<rect x="10" y="0" width="2" height="2" fill="#FFFFFF" />
<rect x="12" y="0" width="2" height="2" fill="#FFFFFF" />
<rect x="14" y="0" width="2" height="2" fill="#FFFFFF" />
<rect x="16" y="0" width="2" height="2" fill="#FFFFFF" />
<rect x="18" y="0" width="2" height="2" fill="#FFFFFF" />
<rect x="20" y="0" width="2" height="2" fill="#FFFFFF" />
<rect x="22" y="0" width="2" height="2" fill="#FFFFFF" />
<rect x="24" y="0" width="2" height="2" fill="#FFFFFF" />
<rect x="0" y="2" width="2" height="2" fill="#FFFFFF" />
<rect x="2" y="2" width="2" height="2" fill="#FFFFFF" />
<rect x="4" y="2" width="2" height="2" fill="#FFFFFF" />
<rect x="6" y="2" width="2" height="2" fill="#FFFFFF" />
<rect x="8" y="2" width="2" height="2" fill="#FFFFFF" />
<rect x="10" y="2" width="2" height="2" fill="#FFFFFF" />
<rect x="12" y="2" width="2" height="2" fill="#FFFFFF" />
<rect x="14" y="2" width="2" height="2" fill="#FFFFFF" />
<rect x="16" y="2" width="2" height="2" fill="#FFFFFF" />
<rect x="18" y="2" width="2" height="2" fill="#FFFFFF" />
<rect x="20" y="2" width="2" height="2" fill="#FFFFFF" />
<rect x="22" y="2" width="2" height="2" fill="#FFFFFF" />
<rect x="24" y="2" width="2" height="2" fill="#FFFFFF" />
<rect x="0" y="4" width="2" height="2" fill="#FFFFFF" />
<rect x="2" y="4" width="2" height="2" fill="#FFFFFF" />
<rect x="4" y="4" width="2" height="2" fill="#FFFFFF" />
<rect x="6" y="4" width="2" height="2" fill="#303030" />
<rect x="8" y="4" width="2" height="2" fill="#303030" />
<rect x="10" y="4" width="2" height="2" fill="#FFFFFF" />
<rect x="12" y="4" width="2" height="2" fill="#FFFFFF" />
<rect x="14" y="4" width="2" height="2" fill="#222034" />
<rect x="16" y="4" width="2" height="2" fill="#222034" />
<rect x="18" y="4" width="2" height="2" fill="#FFFFFF" />
<rect x="20" y="4" width="2" height="2" fill="#FFFFFF" />
<rect x="22" y="4" width="2" height="2" fill="#FFFFFF" />
<rect x="24" y="4" width="2" height="2" fill="#FFFFFF" />
<rect x="0" y="6" width="2" height="2" fill="#FFFFFF" />
<rect x="2" y="6" width="2" height="2" fill="#FFFFFF" />
<rect x="4" y="6" width="2" height="2" fill="#303030" />
<rect x="6" y="6" width="2" height="2" fill="#AC3232" />
<rect x="8" y="6" width="2" height="2" fill="#AC3232" />
<rect x="10" y="6" width="2" height="2" fill="#303030" />
<rect x="12" y="6" width="2" height="2" fill="#222034" />
<rect x="14" y="6" width="2" height="2" fill="#FFF0F0" />
<rect x="16" y="6" width="2" height="2" fill="#FFF0F0" />
<rect x="18" y="6" width="2" height="2" fill="#222034" />
<rect x="20" y="6" width="2" height="2" fill="#FFFFFF" />
<rect x="22" y="6" width="2" height="2" fill="#FFFFFF" />
<rect x="24" y="6" width="2" height="2" fill="#FFFFFF" />
<rect x="0" y="8" width="2" height="2" fill="#FFFFFF" />
<rect x="2" y="8" width="2" height="2" fill="#FFFFFF" />
<rect x="4" y="8" width="2" height="2" fill="#303030" />
<rect x="6" y="8" width="2" height="2" fill="#AC3232" />
<rect x="8" y="8" width="2" height="2" fill="#CB5252" />
<rect x="10" y="8" width="2" height="2" fill="#AC3232" />
<rect x="12" y="8" width="2" height="2" fill="#FFD6D6" />
<rect x="14" y="8" width="2" height="2" fill="#FFF0F0" />
<rect x="16" y="8" width="2" height="2" fill="#FFF0F0" />
<rect x="18" y="8" width="2" height="2" fill="#222034" />
<rect x="20" y="8" width="2" height="2" fill="#FFFFFF" />
<rect x="22" y="8" width="2" height="2" fill="#FFFFFF" />
<rect x="24" y="8" width="2" height="2" fill="#FFFFFF" />
<rect x="0" y="10" width="2" height="2" fill="#FFFFFF" />
<rect x="2" y="10" width="2" height="2" fill="#FFFFFF" />
<rect x="4" y="10" width="2" height="2" fill="#FFFFFF" />
<rect x="6" y="10" width="2" height="2" fill="#303030" />
<rect x="8" y="10" width="2" height="2" fill="#AC3232" />
<rect x="10" y="10" width="2" height="2" fill="#AC3232" />
<rect x="12" y="10" width="2" height="2" fill="#FFD6D6" />
<rect x="14" y="10" width="2" height="2" fill="#FFF0F0" />
<rect x="16" y="10" width="2" height="2" fill="#222034" />
<rect x="18" y="10" width="2" height="2" fill="#FFFFFF" />
<rect x="20" y="10" width="2" height="2" fill="#FFFFFF" />
<rect x="22" y="10" width="2" height="2" fill="#FFFFFF" />
<rect x="24" y="10" width="2" height="2" fill="#FFFFFF" />
<rect x="0" y="12" width="2" height="2" fill="#FFFFFF" />
<rect x="2" y="12" width="2" height="2" fill="#FFFFFF" />
<rect x="4" y="12" width="2" height="2" fill="#FFFFFF" />
<rect x="6" y="12" width="2" height="2" fill="#FFFFFF" />
<rect x="8" y="12" width="2" height="2" fill="#303030" />
<rect x="10" y="12" width="2" height="2" fill="#AC3232" />
<rect x="12" y="12" width="2" height="2" fill="#FFD6D6" />
<rect x="14" y="12" width="2" height="2" fill="#222034" />
<rect x="16" y="12" width="2" height="2" fill="#FFFFFF" />
<rect x="18" y="12" width="2" height="2" fill="#FFFFFF" />
<rect x="20" y="12" width="2" height="2" fill="#FFFFFF" />
<rect x="22" y="12" width="2" height="2" fill="#FFFFFF" />
<rect x="24" y="12" width="2" height="2" fill="#FFFFFF" />
<rect x="0" y="14" width="2" height="2" fill="#FFFFFF" />
<rect x="2" y="14" width="2" height="2" fill="#FFFFFF" />
<rect x="4" y="14" width="2" height="2" fill="#FFFFFF" />
<rect x="6" y="14" width="2" height="2" fill="#FFFFFF" />
<rect x="8" y="14" width="2" height="2" fill="#FFFFFF" />
<rect x="10" y="14" width="2" height="2" fill="#303030" />
<rect x="12" y="14" width="2" height="2" fill="#222034" />
<rect x="14" y="14" width="2" height="2" fill="#FFFFFF" />
<rect x="16" y="14" width="2" height="2" fill="#FFFFFF" />
<rect x="18" y="14" width="2" height="2" fill="#FFFFFF" />
<rect x="20" y="14" width="2" height="2" fill="#FFFFFF" />
<rect x="22" y="14" width="2" height="2" fill="#FFFFFF" />
<rect x="24" y="14" width="2" height="2" fill="#FFFFFF" />
<rect x="0" y="16" width="2" height="2" fill="#FFFFFF" />
<rect x="2" y="16" width="2" height="2" fill="#FFFFFF" />
<rect x="4" y="16" width="2" height="2" fill="#FFFFFF" />
<rect x="6" y="16" width="2" height="2" fill="#FFFFFF" />
<rect x="8" y="16" width="2" height="2" fill="#FFFFFF" />
<rect x="10" y="16" width="2" height="2" fill="#FFFFFF" />
<rect x="12" y="16" width="2" height="2" fill="#FFFFFF" />
<rect x="14" y="16" width="2" height="2" fill="#FFFFFF" />
<rect x="16" y="16" width="2" height="2" fill="#FFFFFF" />
<rect x="18" y="16" width="2" height="2" fill="#FFFFFF" />
<rect x="20" y="16" width="2" height="2" fill="#FFFFFF" />
<rect x="22" y="16" width="2" height="2" fill="#FFFFFF" />
<rect x="24" y="16" width="2" height="2" fill="#FFFFFF" />
<rect x="0" y="18" width="2" height="2" fill="#FFFFFF" />
<rect x="2" y="18" width="2" height="2" fill="#FFFFFF" />
<rect x="4" y="18" width="2" height="2" fill="#FFFFFF" />
<rect x="6" y="18" width="2" height="2" fill="#FFFFFF" />
<rect x="8" y="18" width="2" height="2" fill="#FFFFFF" />
<rect x="10" y="18" width="2" height="2" fill="#FFFFFF" />
<rect x="12" y="18" width="2" height="2" fill="#FFFFFF" />
<rect x="14" y="18" width="2" height="2" fill="#FFFFFF" />
<rect x="16" y="18" width="2" height="2" fill="#FFFFFF" />
<rect x="18" y="18" width="2" height="2" fill="#FFFFFF" />
<rect x="20" y="18" width="2" height="2" fill="#FFFFFF" />
<rect x="22" y="18" width="2" height="2" fill="#FFFFFF" />
<rect x="24" y="18" width="2" height="2" fill="#FFFFFF" />
</svg>